<svg
  class="hab-header-logo"
  width="150"
  height="40"
  viewBox="0 0 150 40"
  fill="none"
  xmlns="http://www.w3.org/2000/svg"
>
  <title>BioTRUST</title>
  <g clip-path="url(#clip0_1_69)">
  <path d="M148.109 4.41797L148.33 5.32581H147.581C147.369 4.89962 147.448 4.11771 146.935 4.07307C146.756 4.05709 146.577 4.05897 146.404 4.0679V5.32159L145.699 5.32393V2.16482C146.292 2.06426 146.878 2.03043 147.451 2.11595C147.896 2.18267 148.171 2.46508 148.213 2.89034C148.253 3.28505 147.994 3.61163 147.537 3.74931C147.859 3.84658 148.033 4.10361 148.109 4.41797ZM146.425 3.52893C146.823 3.54866 147.47 3.55242 147.454 3.0501C147.449 2.86543 147.328 2.67888 147.111 2.62813C146.89 2.57645 146.673 2.5896 146.426 2.62156L146.425 3.52893Z" fill="currentColor"/>
  <path d="M144.193 2.05486C144.919 0.803055 146.386 0.23072 147.778 0.635771C149.119 1.02626 150.027 2.30626 149.987 3.7338C149.959 4.74314 149.544 5.67871 148.687 6.29051C147.204 7.34919 145.151 6.90655 144.227 5.36717C143.617 4.34843 143.594 3.08769 144.193 2.05486ZM148.936 4.89586C149.342 4.05239 149.298 3.09474 148.851 2.30156C148.459 1.60564 147.757 1.18179 147.001 1.14843C146.212 1.11319 145.48 1.4595 145.022 2.11454C144.369 3.04963 144.368 4.31272 145.034 5.24217C145.519 5.91836 146.294 6.2548 147.124 6.18009C147.88 6.11148 148.576 5.64488 148.936 4.89586Z" fill="currentColor"/>
  <path d="M140.943 0.586432C141.325 0.586432 141.595 0.888106 141.595 1.241L141.596 4.7173C141.559 5.01803 141.357 5.3869 141.007 5.38737L136.038 5.39724L136.037 20.7577C136.037 21.0443 135.78 21.3794 135.472 21.3799L131.287 21.3902C130.894 21.3911 130.56 21.128 130.56 20.7154V5.39442L125.692 5.39207C125.3 5.39207 125.039 5.10825 125.029 4.73233L125.026 1.24476C125.026 0.921938 125.239 0.587371 125.623 0.587371L140.943 0.586432Z" fill="currentColor"/>
  <path d="M131.814 27.8969V30.8238L131.124 30.8323L131.117 28.7309L130.357 30.8004C130.211 30.8351 130.035 30.8356 129.846 30.8201L129.075 28.7399L129.069 30.8276L128.378 30.8257V27.894L129.362 27.9006L130.098 29.7976L130.844 27.894L131.814 27.8969Z" fill="currentColor"/>
  <path d="M127.985 27.8936L127.989 28.4654H127.159L127.16 30.8229L126.424 30.8281L126.42 28.4683L125.583 28.4621L125.588 27.8936H127.985Z" fill="currentColor"/>
  <path d="M122.986 30.3366C124.533 30.3521 125.306 31.5964 125.33 33.0239V37.136L123.632 37.1364V33.3035C123.618 32.5183 123.307 31.6838 122.345 31.7054C121.496 31.7242 120.953 32.422 120.954 33.2105L120.958 37.135L119.245 37.1388L119.243 31.9925L119.193 30.486H120.676L120.775 31.5188C121.247 30.7275 122.079 30.3276 122.986 30.3366Z" fill="currentColor"/>
  <path d="M109.237 14.4916C109.471 14.2717 109.813 14.2947 110.025 14.4724L110.831 15.1485C112.283 16.3656 113.998 17.2805 115.939 16.6588C116.655 16.43 117.08 15.8628 117.142 15.1391C117.175 14.7463 117.099 14.3948 116.804 14.1129C116.16 13.4969 115.393 13.1891 114.536 12.901C113.356 12.504 112.228 12.0698 111.129 11.4852C108.892 10.2959 107.34 8.61698 107.302 5.98414C107.257 2.9472 109.456 1.03236 112.292 0.404581C113.561 0.123583 114.834 0.0714242 116.127 0.218502C117.761 0.404111 119.258 1.01357 120.582 1.9637C121.044 2.29639 121.461 2.62579 121.819 3.06138C122.041 3.3311 122.052 3.69339 121.795 3.96546L119.465 6.43618C119.182 6.73692 118.814 6.75148 118.495 6.48552C117.636 5.76705 116.826 5.08429 115.67 4.83759C114.755 4.64211 112.965 4.79765 112.775 5.93903C112.692 6.43665 112.851 6.87178 113.238 7.17862C113.921 7.72135 114.969 8.02537 115.831 8.31107C116.819 8.63953 117.765 8.97974 118.722 9.38996C121.009 10.3706 122.658 11.8861 122.793 14.4789C122.954 17.553 121.134 19.9124 118.31 20.9922C116.075 21.8469 113.466 21.8972 111.219 21.0176C109.986 20.535 108.844 19.9081 107.842 19.0487C107.368 18.6422 106.967 18.193 106.551 17.7405C106.342 17.5126 106.368 17.1921 106.592 16.9816L109.237 14.4916Z" fill="currentColor"/>
  <path d="M111.246 32.4976C111.833 30.7552 113.673 30.0523 115.385 30.4362C117.507 30.9117 118.24 33.1503 117.648 35.0459C117.066 36.9071 115.032 37.6613 113.257 37.1186C111.257 36.5073 110.636 34.3086 111.246 32.4976ZM115.738 35.2569C116.199 34.3941 116.196 33.3467 115.807 32.4765C115.554 31.9107 115.051 31.5686 114.47 31.5668C113.897 31.5653 113.375 31.8524 113.103 32.3985C112.663 33.2833 112.66 34.3899 113.124 35.263C113.395 35.7728 113.89 36.0637 114.425 36.0707C114.965 36.0778 115.458 35.7813 115.738 35.2569Z" fill="currentColor"/>
  <path d="M108.759 27.7117C109.26 27.7094 109.646 28.0336 109.708 28.5002C109.771 28.9748 109.494 29.417 108.971 29.5124C108.373 29.6209 107.867 29.2788 107.816 28.7135C107.767 28.1769 108.167 27.7145 108.759 27.7117Z" fill="currentColor"/>
  <path d="M109.62 30.4855L109.621 37.1228L107.908 37.1383L107.907 30.4888L109.62 30.4855Z" fill="currentColor"/>
  <path d="M105.121 35.4547C105.332 36.0181 105.977 35.9321 106.533 35.8386L106.555 37.1219C105.403 37.4287 103.868 37.3883 103.493 36.0538C103.396 35.7108 103.347 35.3593 103.347 34.9918L103.345 31.7514L102.379 31.7383L102.382 30.4874L103.344 30.4832L103.347 28.9828L105.001 28.5895L105.005 30.486H106.611L106.616 31.743L105.003 31.7486L105.004 34.8509C105.004 35.0534 105.053 35.2728 105.121 35.4547Z" fill="currentColor"/>
  <path d="M90.4003 0.586432C90.647 0.586432 91.0881 0.798826 91.0886 1.10661L91.1047 13.3728C91.1066 14.7971 91.8499 16.2476 93.3022 16.7072C94.9126 17.217 96.7155 16.7485 97.538 15.2143C97.8543 14.6241 98.0355 13.9931 98.0355 13.2972L98.0403 1.18367C98.0403 0.840647 98.3367 0.585962 98.664 0.585962L102.882 0.588312C103.231 0.588312 103.516 0.866491 103.516 1.20153L103.515 13.2036C103.515 13.9978 103.442 14.7205 103.291 15.4873C102.756 18.201 101.004 20.3574 98.2845 21.1745C95.911 21.8878 93.3596 21.8963 90.9828 21.198C88.2166 20.3851 86.398 18.209 85.8468 15.4507C85.6931 14.681 85.623 13.9545 85.623 13.1571L85.622 1.20294C85.622 0.903613 85.8464 0.589721 86.1471 0.589252L90.4003 0.586432Z" fill="currentColor"/>
  <path d="M100.363 27.7117C100.865 27.7103 101.249 28.0364 101.31 28.5063C101.371 28.979 101.092 29.4179 100.573 29.5124C99.9755 29.6209 99.4713 29.2812 99.4172 28.7201C99.3655 28.1755 99.7692 27.7136 100.363 27.7117Z" fill="currentColor"/>
  <path d="M101.222 30.4855L101.223 37.1223L99.5097 37.1383L99.5088 30.4883L101.222 30.4855Z" fill="currentColor"/>
  <path d="M96.9085 30.6805C97.3278 30.393 97.8112 30.2595 98.3509 30.3803L98.3562 31.9431C97.8316 31.8863 97.3402 31.8774 96.9185 32.2105C96.54 32.5094 96.3014 32.9854 96.299 33.4924L96.2848 37.1383L94.5881 37.135L94.5843 32.0103L94.5369 30.4888L96.003 30.4851L96.0761 31.7679C96.3161 31.3271 96.5096 30.9535 96.9085 30.6805Z" fill="currentColor"/>
  <path d="M91.7967 35.4509C92.0016 36.0125 92.6486 35.9354 93.2083 35.8391L93.2373 37.1158C92.115 37.4306 90.545 37.3986 90.1698 36.0496C90.0745 35.7075 90.0242 35.3569 90.0237 34.9932L90.0218 31.7524L89.0566 31.7369L89.058 30.4869L90.0213 30.4851L90.0247 28.9828L91.6796 28.5881V30.4865H93.2928V31.7416L91.6796 31.7491L91.6805 34.8039C91.6805 35.0243 91.7246 35.2536 91.7967 35.4514V35.4509Z" fill="currentColor"/>
  <path d="M83.7271 35.2197C83.9154 35.708 84.3741 35.9664 84.9053 35.9166C85.6471 35.8466 86.1874 35.215 86.1869 34.4754L86.1855 30.4883L87.8864 30.4855L87.8921 35.739L87.9329 37.1397L86.4559 37.1364L86.3582 36.105C85.8601 36.9367 84.9769 37.3385 84.015 37.2868C82.4976 37.206 81.89 35.9918 81.8445 34.6136V30.4865H83.5402L83.5435 34.2409C83.5435 34.5835 83.6104 34.9167 83.7271 35.2197Z" fill="currentColor"/>
  <path d="M75.5535 0.583143C77.9835 0.581733 80.2441 1.79689 81.5343 3.82919C83.6066 7.15419 82.463 11.2714 79.0602 13.2224L83.072 20.7051C83.1413 20.8338 83.0996 21.0556 83.0507 21.1562C83.0009 21.2596 82.8145 21.3874 82.6561 21.3874L77.6913 21.3883C77.3664 21.3883 77.1141 21.1961 77.0197 20.8681L73.5837 14.4691L71.2965 14.471L71.2936 20.855C71.2936 21.1571 71.0498 21.386 70.7486 21.386H66.3574C66.0595 21.386 65.8185 21.1548 65.8185 20.8498V1.16347C65.8185 0.843466 66.0623 0.587372 66.3759 0.587372L75.5535 0.583143ZM76.7152 8.42855C77.273 6.99489 76.451 5.31642 74.9217 4.99172C74.1296 4.82303 73.3237 4.87142 72.5202 4.87612L71.2955 4.88317V10.013L73.845 10.014C74.2463 10.0144 74.6476 9.99424 75.0342 9.91295C75.8258 9.74614 76.4154 9.19871 76.7152 8.42855Z" fill="currentColor"/>
  <path d="M79.9733 27.9363L79.9723 37.136L78.2121 37.1317L75.6887 32.9266L74.1012 29.9122L74.1614 32.8345L74.1642 37.135L72.6037 37.1313V27.9363L74.5347 27.9293L76.9258 31.8604C77.5471 32.8825 78.0646 33.9139 78.5394 35.0008C78.4555 33.7696 78.3971 32.6015 78.3971 31.3788L78.3962 27.933L79.9733 27.9363Z" fill="currentColor"/>
  <path d="M67.8211 27.442L67.8221 37.1205L66.1088 37.1397L66.1079 27.4443L67.8211 27.442Z" fill="currentColor"/>
  <path d="M64.2637 27.442L64.2646 37.1205L62.5514 37.1397L62.5504 27.4443L64.2637 27.442Z" fill="currentColor"/>
  <path d="M61.7593 0.587842C62.1022 0.587842 62.3678 0.903613 62.3678 1.20294L62.3697 4.78073C62.2905 5.05046 62.1226 5.38643 61.792 5.3869L56.8097 5.39395V20.7135C56.8097 21.0392 56.573 21.3822 56.2196 21.3827L51.9778 21.3855C51.7031 21.386 51.337 21.1266 51.337 20.8094L51.3336 5.39442L46.4334 5.39113C46.063 5.39066 45.8249 5.09933 45.803 4.75771L45.8002 1.23959C45.8002 0.905492 46.0245 0.587372 46.4111 0.587372H61.7593V0.587842Z" fill="currentColor"/>
  <path d="M57.9855 35.9227C58.8517 36.09 59.6822 35.9904 60.5507 35.7127L60.8007 36.8742C59.7173 37.252 58.5865 37.3935 57.4794 37.1736C56.342 36.9475 55.4655 36.1727 55.1543 35.0736C54.8754 34.0887 54.9546 33.0568 55.3829 32.1349C55.9365 30.9432 57.1114 30.2633 58.4319 30.345C59.5219 30.3572 60.4326 30.962 60.8533 31.9549C61.1645 32.6889 61.2385 33.475 61.1194 34.2851L56.6309 34.286C56.6257 35.1098 57.174 35.7258 57.9855 35.9227ZM59.5684 33.108C59.575 32.5803 59.4275 32.1494 59.0888 31.8003C58.5163 31.3346 57.6459 31.3816 57.1379 31.9253C56.831 32.2533 56.6712 32.6621 56.6314 33.1085H59.5684V33.108Z" fill="currentColor"/>
  <path d="M54.8655 27.9561L52.3781 37.1322L50.5548 37.1426L49.5326 32.5658C49.3301 31.6574 49.1944 30.8022 49.0626 29.8624C48.8847 30.8633 48.6798 31.8257 48.4303 32.8251L47.3541 37.1397L45.5165 37.1313L43.2441 27.9377L45.0484 27.9279L45.7736 31.3412L46.551 35.3335L47.1715 32.4107L48.2477 27.9354L50.0321 27.9344L50.9812 32.2885L51.5343 35.2879L52.1414 32.2768L53.1456 27.934L54.8655 27.9561Z" fill="currentColor"/>
  <path d="M45.6821 9.38291C46.3272 11.1699 46.3822 13.1524 45.8813 14.978C44.7534 19.0919 40.9407 21.8479 36.6334 21.7121C32.5651 21.5838 29.0855 18.9171 27.9917 15.0433C26.8946 11.1563 28.4001 6.96247 31.8731 4.76288C33.4365 3.77281 35.2427 3.29821 37.0826 3.31794C40.9664 3.35883 44.3744 5.75859 45.6821 9.38291ZM40.4612 14.6279C41.0925 13.1783 41.0394 11.474 40.3028 10.0784C39.6136 8.77251 38.3211 8.0188 36.8483 8.03759C35.4225 8.05592 34.1745 8.77016 33.464 10.0074C32.6619 11.4049 32.587 13.1421 33.2515 14.6124C33.897 16.0404 35.2712 16.898 36.872 16.9088C38.4648 16.9196 39.8379 16.0601 40.4612 14.6279Z" fill="currentColor"/>
  <path d="M35.6554 34.2865C35.6497 35.0769 36.1709 35.7211 36.9778 35.9086C37.8482 36.1107 38.7057 35.9796 39.5761 35.7155L39.8266 36.8663C38.7679 37.2549 37.6195 37.3907 36.5163 37.1759C35.3731 36.9537 34.4956 36.1811 34.1807 35.0816C33.9008 34.1056 33.9786 33.0761 34.3932 32.1626C34.9491 30.939 36.1302 30.2778 37.4673 30.3356C38.5705 30.3826 39.4817 30.969 39.8972 31.9995C40.188 32.7204 40.2667 33.5065 40.1391 34.2856L35.6554 34.2865ZM38.5881 33.1099C38.5976 32.6184 38.4705 32.117 38.0872 31.7914C37.5342 31.3219 36.6609 31.399 36.169 31.9178C35.8555 32.2486 35.7113 32.6348 35.6501 33.1019L38.5881 33.1099Z" fill="currentColor"/>
  <path d="M27.0516 38.1956C27.8399 38.595 28.6373 38.7736 29.4654 38.6561C30.7769 38.4695 31.0407 37.2567 30.9268 36.129C30.5308 36.644 30.0313 36.9645 29.3957 37.0636C28.1383 37.2591 26.9605 36.6252 26.4393 35.457C25.9407 34.3391 25.9872 33.0051 26.5612 31.9182C27.1541 30.7957 28.3475 30.1848 29.593 30.3699C30.25 30.4677 30.7404 30.8187 31.1123 31.3656L31.1972 30.4832L32.6628 30.4926L32.6126 32.367L32.6055 36.4913C32.6045 37.0547 32.5063 37.5904 32.3289 38.1072C32.0913 38.8003 31.6018 39.3196 30.9401 39.6255C29.8155 40.1457 27.8186 40.1175 26.6821 39.4685L27.0516 38.1956ZM30.9121 33.1118C30.9131 32.5944 30.6565 32.0813 30.203 31.8186C29.4389 31.376 28.4959 31.7026 28.1108 32.4962C27.5515 33.6489 27.7768 35.6206 29.2335 35.8226C30.157 35.9504 30.9069 35.2705 30.9088 34.3843L30.9121 33.1118Z" fill="currentColor"/>
  <path d="M22.4497 27.933L25.4645 37.1256L23.646 37.1364L22.8059 34.5337L19.8571 34.5318L19.0578 37.1327L17.3066 37.1256L20.2802 27.9344L22.4497 27.933ZM22.5138 33.2546L21.7643 30.9385L21.3019 29.2506L20.8712 30.9033L20.1336 33.2589L22.5138 33.2546Z" fill="currentColor"/>
  <path d="M24.7981 20.4025C24.7986 20.9607 24.3812 21.3761 23.8438 21.3766L20.2527 21.3803C19.7627 21.3808 19.3714 20.9884 19.3718 20.4777L19.3756 7.73545C19.3756 7.15466 19.8794 6.79565 20.3812 6.798L23.7247 6.81398C24.1734 6.81633 24.7886 7.28952 24.7891 7.78526L24.7981 20.4025Z" fill="currentColor"/>
  <path d="M22.076 5.4212C20.6449 5.41838 19.4458 4.31084 19.3538 2.88658C19.2623 1.46937 20.3063 0.179031 21.7757 0.0277239C23.5416 -0.154596 24.9247 1.25416 24.8104 2.90349C24.7122 4.31648 23.516 5.42355 22.076 5.4212Z" fill="currentColor"/>
  <path d="M10.2198 0.605698C13.771 0.614626 16.4505 3.85175 16.0487 7.30549C15.924 8.37498 15.5279 9.36364 14.8088 10.1921C17.0994 12.2784 17.7781 15.6636 16.0516 18.4176C14.9288 20.2084 12.9889 21.3897 10.8482 21.3893L0.52792 21.3874C0.223404 21.3869 0.0118561 21.1407 0.0118561 20.8545V1.1583C0.0123304 0.837357 0.25471 0.581733 0.58057 0.582673L10.2198 0.605698ZM9.24266 17.226C10.4697 17.226 11.4084 16.0644 11.3994 14.8798C11.3937 14.0988 10.9886 13.3498 10.327 12.8996C9.98071 12.6708 9.61406 12.5472 9.19238 12.5524H5.47653L5.47796 17.2255H9.24266V17.226ZM9.84742 8.38156C10.5613 7.82943 10.8279 6.94273 10.5399 6.08799C10.2895 5.34461 9.54718 4.73609 8.66968 4.73374L5.47559 4.72576L5.47843 8.7805L8.57814 8.77768C9.0387 8.77768 9.44994 8.63201 9.84742 8.38156Z" fill="currentColor"/>
  </g>
  <defs>
  <clipPath id="clip0_1_69">
  <rect width="150" height="40" fill="currentColor"/>
  </clipPath>
  </defs>
</svg>
