<?xml version="1.0" encoding="UTF-8"?>
<svg width="218px" height="18px" viewBox="0 0 218 18" version="1.1" xmlns="http://www.w3.org/2000/svg" xmlns:xlink="http://www.w3.org/1999/xlink">
    <title>logo</title>
    <g id="Homepage" stroke="none" stroke-width="1" fill="none" fill-rule="evenodd">
        <g id="D_Homepage_Redesign_V3-2-Scroll" transform="translate(-40.000000, -54.000000)">
            <g id="NAV" transform="translate(0.000000, 30.000000)">
                <g id="logo" transform="translate(40.000000, 24.000000)">
                    <path d="M104.997793,5.4957077 C105.018647,4.5476677 104.639957,3.63360405 103.952091,2.97163678 C103.264224,2.30966952 102.32888,1.95917624 101.369258,2.00379403 L99,2.00379403 L99,8.94917829 L99.0454378,8.99402856 L101.369258,8.99402856 C102.333234,9.0506053 103.27666,8.70314538 103.967484,8.03711301 C104.658307,7.37108064 105.032417,6.44828605 104.997793,5.4957077 Z" id="Path"></path>
                    <path d="M45.7493606,3 C45.7493606,3 45.7493606,3 45.7493606,3 C45.7493606,3 43.4731458,8.80645161 43,10 C43.2243303,9.86639583 43.4571454,9.74785924 43.6969309,9.64516129 L43.6969309,9.64516129 C45.0742017,9.10894532 46.5260907,8.79330577 48,8.70967742 L45.7557545,3 L45.7493606,3 Z" id="Path"></path>
                    <path d="M65.3246757,2 L63.0779227,2 C63.0348875,2 63,2.03472437 63,2.07755906 L63,8.92860948 C62.9999173,8.94864043 63.0083274,8.96777698 63.0231625,8.9813125 C63.0379977,8.99484802 63.0578812,9.00152647 63.0779227,8.99970529 L65.3246757,8.99970529 C67.5909092,8.99970529 69,7.66181148 69,5.49662102 C69,3.33143055 67.5194807,2 65.3246757,2 Z" id="Path"></path>
                    <path d="M29.9980189,5.49590312 C30.018936,4.54875176 29.6410025,3.63543977 28.9542525,2.9735433 C28.2675024,2.31164683 27.333421,1.96042584 26.3745323,2.00355086 L24.0722447,2.00355086 C24.0519741,2.003468 24.0326086,2.01182873 24.0189111,2.02657672 C24.0052136,2.04132472 23.9984553,2.06109143 24.0002982,2.08101523 L24.0002982,8.92370173 C24.0002982,8.96291892 24.0325098,8.99471074 24.0722447,8.99471074 L26.3745323,8.99471074 C27.3372737,9.04782803 28.2782813,8.69898399 28.967529,8.03345225 C29.6567768,7.3679205 30.0307452,6.44703513 29.9980189,5.49590312 Z" id="Path"></path>
                    <path d="M5.08029791,1 L3.07541866,1 C3.03610194,1 3.00327618,1.03170313 3,1.07317122 L3,15.9268288 C3.00327618,15.9682969 3.03610194,16 3.07541866,16 L5.08658279,16 C9.23460883,16 12,12.9866959 12,8.50332594 C12.0125293,4.15299363 9.0963413,1 5.08029791,1 Z" id="Path"></path>
                    <path d="M147.729008,3 C147.729008,3 147.729008,3 147.729008,3 C147.729008,3 145.464377,8.80645161 145,10 C145.231112,9.86290994 145.471295,9.74219191 145.71883,9.63870968 L145.71883,9.63870968 C147.089091,9.1024937 148.533592,8.78685416 150,8.70322581 L147.735369,3 L147.729008,3 Z" id="Path"></path>
                    <path d="M135.667767,0.0136208854 L133.073421,0.0136208854 C132.975132,0.0116215584 132.882743,0.0605183229 132.828927,0.143019296 C132.766201,0.219026348 132.748128,0.322585649 132.781387,0.415437003 L132.828927,0.565266742 C133.072623,1.33050028 133.243178,2.11724452 133.338288,2.91486947 L133.338288,9.60953462 C133.338288,14.1112372 132.835719,16.2292849 129.854258,16.9103292 C129.495448,16.9733403 129.131891,17.0052403 128.767621,17.0056754 C128.586061,17.0034358 128.404727,16.9920708 128.224302,16.9716232 C126.465308,16.8013621 125.351505,14.9897843 124.903267,13.3552781 C124.875171,13.1430659 124.688514,12.9885693 124.475404,13.0011351 L124.441446,13.0011351 C124.325011,12.9976482 124.212191,13.0419183 124.129038,13.123723 C124.048093,13.2080462 124.001989,13.3199769 124,13.4370034 L124.040749,15.4801362 C124.044118,15.6996616 124.107548,15.9140423 124.224119,16.0998865 C124.971182,17.2849035 126.682636,18 128.801578,18 C130.920521,18 132.591225,17.4211124 133.677863,16.1816118 C134.7645,14.9421112 135.355359,13.0079455 135.355359,10.3518729 L135.355359,3.57548241 C135.393407,2.55578704 135.576357,1.5467527 135.898677,0.578887628 L135.986967,0.395005675 C136.014873,0.302269457 135.997415,0.201762499 135.939886,0.123948585 C135.882357,0.0461346702 135.791529,0 135.694933,0 L135.667767,0.0136208854 Z" id="Path" fill="#365072" fill-rule="nonzero"></path>
                    <path d="M181.932615,0.539074697 L181.979552,0.38130225 C182.007104,0.291787633 181.989868,0.194772227 181.933069,0.119661522 C181.87627,0.0445508162 181.786595,0.000187755042 181.691224,0 L179.907615,0 C179.795216,-0.000471580867 179.691856,0.0603290762 179.639404,0.157791284 L172.082534,14.6202656 C172.068363,14.6453763 172.0414,14.6609612 172.012128,14.6609612 C171.982857,14.6609612 171.955894,14.6453763 171.941723,14.6202656 L164.384853,0.157791284 C164.332401,0.0603290762 164.22904,-0.000471580867 164.116641,0 L162.306211,0 C162.210984,-0.00104517855 162.121089,0.0430213343 162.064821,0.118348172 C162.005118,0.19256426 161.985183,0.290282546 162.011178,0.38130225 L162.064821,0.532500845 C162.362165,1.40655741 162.542481,2.31476868 162.601244,3.234354 L162.601244,13.7525171 C162.542209,14.6763601 162.361914,15.588884 162.064821,16.467518 L162.011178,16.6187166 C161.985199,16.707634 162.005233,16.8033875 162.064821,16.8750968 C162.119622,16.9529125 162.20976,16.9995528 162.306211,17 L163.40588,17 C163.569942,17 163.703972,16.8715563 163.707618,16.7107505 L163.707618,3.34610948 C163.707618,3.30254182 163.743643,3.26722326 163.788082,3.26722326 C163.816748,3.26491028 163.843726,3.28077974 163.855135,3.30666637 L170.205051,15.4419971 L170.882286,16.8159321 C170.930329,16.9181915 171.035689,16.98275 171.150498,16.9802784 L171.914902,16.9802784 C172.027301,16.9807689 172.130661,16.9199682 172.183113,16.822506 L179.243791,3.28037096 C179.256609,3.25573362 179.282638,3.24042222 179.310844,3.24092785 C179.332761,3.23886683 179.354472,3.24651337 179.370041,3.2617773 C179.38561,3.27704123 179.39341,3.29832624 179.391308,3.31981407 L179.391308,16.6976028 C179.394692,16.8570595 179.523813,16.9865263 179.686341,16.9934261 L181.69793,16.9934261 C181.794971,16.995356 181.886187,16.9481579 181.93932,16.868523 C181.997753,16.7936138 182.01527,16.6954809 181.986257,16.6055689 L181.93932,16.4477964 C181.610759,15.4955624 181.427734,14.5009029 181.396191,13.4961369 L181.396191,3.49730808 C181.425695,2.49073874 181.606447,1.49393749 181.932615,0.539074697 L181.932615,0.539074697 Z" id="Path" fill="#365072" fill-rule="nonzero"></path>
                    <path d="M217.834029,11.7971007 C217.317429,10.2832181 216.140729,9.2851274 213.342481,7.99229849 L212.754131,7.72435468 C210.221358,6.56549768 208.901159,5.88224095 208.901159,4.18079772 C208.839123,2.75646591 209.82944,1.47758031 211.297607,1.08604665 C211.56097,1.02812939 211.830636,0.998907138 212.101207,0.99896491 L212.431257,0.99896491 L212.474307,0.99896491 C212.702402,1.02108168 212.928045,1.06142106 213.148756,1.11953963 C214.641155,1.5951399 215.559555,3.1961042 215.731755,3.51093818 C215.775078,3.59246648 215.863875,3.64427944 215.961355,3.64491009 L216.320104,3.64491009 C216.395939,3.64364736 216.467574,3.61216221 216.516934,3.55839883 C216.566294,3.50463545 216.588666,3.43372856 216.578404,3.36356908 L215.961355,1.1664298 C215.912621,0.987282879 215.781195,0.837589239 215.602605,0.757815476 C214.574255,0.306727819 213.459043,0.0538411236 212.323632,0.0142713887 L212.230357,0.0142713887 C212.025178,-0.00475712955 211.818485,-0.00475712955 211.613307,0.0142713887 C209.099837,0.192100545 207.137924,2.11634242 207.071535,4.46883732 C206.958727,5.88889655 207.732554,7.24250678 209.059009,7.94540833 L209.245558,8.05928445 C209.843513,8.45215621 210.477361,8.79510898 211.139757,9.08416954 L211.663532,9.31862038 C214.390031,10.5511619 215.96853,11.328199 216.140729,13.1703127 C216.28799,14.8866987 215.067315,16.4451362 213.270731,16.8344444 C212.892465,16.9231924 212.505309,16.9748282 212.115557,16.9885121 C210.703963,16.9109933 209.387439,16.2988574 208.470659,15.2937675 C207.832906,14.6642025 207.289806,13.9566012 206.856285,13.1904085 C206.809325,13.1088783 206.718657,13.0575766 206.61951,13.0564366 L206.26076,13.0564366 C206.178739,13.0589871 206.102312,13.0958938 206.052685,13.1569155 C206.003625,13.2183168 205.987733,13.2974472 206.009635,13.3712706 L206.64821,15.6621902 C206.678001,15.767064 206.734633,15.8636122 206.813235,15.9435312 C207.816157,16.8749839 209.079043,17.5248451 210.458133,17.8191379 C210.877311,17.92558 211.308299,17.9862729 211.742457,18 L212.459957,18 C214.241288,17.9634066 215.903416,17.1565868 216.958679,15.8162579 C217.907061,14.6778112 218.230897,13.1909196 217.834029,11.7971007 L217.834029,11.7971007 Z" id="Path" fill="#365072" fill-rule="nonzero"></path>
                    <path d="M199.617964,14.8437292 C199.404976,14.9066059 199.201,14.9949437 199.0108,15.1066796 C197.867096,15.7393089 196.570578,16.0703466 195.25184,16.0664485 L191.745297,16.0664485 C191.723585,16.0664485 191.702763,16.0581375 191.68741,16.0433436 C191.672058,16.0285498 191.663433,16.0084851 191.663433,15.9875634 L191.663433,9.01280442 C191.663433,8.96923737 191.700085,8.9339193 191.745297,8.9339193 L194.378616,8.9339193 C195.531847,8.88278517 196.685627,9.02287002 197.78965,9.34806616 C197.921895,9.38783236 198.056255,9.42074826 198.192152,9.44667255 C198.293014,9.46493693 198.39718,9.44103833 198.478679,9.38093496 C198.554986,9.3185577 198.599728,9.22754134 198.601476,9.13113209 L198.601476,7.7769376 C198.599564,7.68242634 198.554666,7.59349473 198.478679,7.53370849 C198.402381,7.4684249 198.29976,7.43948282 198.198974,7.45482337 C198.060589,7.48244115 197.923931,7.51755695 197.78965,7.56000353 C196.733501,7.86853735 195.631587,8.00626126 194.528701,7.96757663 L191.731653,7.96757663 C191.710598,7.96942895 191.689708,7.96263631 191.674122,7.94886937 C191.658537,7.93510243 191.649701,7.91563869 191.649788,7.89526527 L191.649788,1.03883393 C191.649788,0.995266883 191.686441,0.959948814 191.731653,0.959948814 L194.951669,0.959948814 C196.271027,0.958050134 197.567586,1.29136573 198.710629,1.92629149 C198.896058,2.03625484 199.095582,2.1224408 199.304149,2.18266811 C199.401581,2.1960849 199.500419,2.16989381 199.577032,2.11035676 C199.653339,2.0479795 199.69808,1.95696314 199.699829,1.86055389 L199.699829,0.295999086 C199.699829,0.132622662 199.562383,0.000179900941 199.392836,0.000179900941 L189.309819,0.000179900941 C189.212395,-0.00320558522 189.119868,0.0413736905 189.064225,0.118507575 C189.001216,0.191873157 188.983062,0.291833466 189.01647,0.381457962 L189.064225,0.545801954 C189.411116,1.52455352 189.599789,2.54887715 189.623634,3.58287892 L189.623634,13.4172234 C189.600439,14.4512873 189.411748,15.4757061 189.064225,16.4543004 L189.01647,16.6186444 C188.983062,16.7082689 189.001216,16.8082292 189.064225,16.8815947 C189.120697,16.9578009 189.212668,17.0021129 189.309819,17 L199.693007,17 C199.859925,17 199.996291,16.8714805 200,16.710677 L200,15.1395484 C200,15.0427293 199.955015,14.9509985 199.877203,14.8897456 C199.800131,14.8428912 199.707303,14.8264137 199.617964,14.8437292 L199.617964,14.8437292 Z" id="Path" fill="#365072" fill-rule="nonzero"></path>
                    <path d="M108.851889,16.4535905 C108.767973,16.3614504 108.684058,16.2693103 108.600142,16.190333 C107.741517,15.3137923 106.959637,14.3624491 106.263419,13.3471526 L103.255372,8.95733466 L103.390928,8.95733466 C105.972942,8.53612274 107.476966,6.91708944 107.476966,4.51486523 C107.476966,1.88229075 105.404899,0 102.442037,0 L97.2780076,0 C97.1903704,0.00099826749 97.1086124,0.0451294674 97.0585363,0.118465851 C97.0023141,0.185786025 96.9851344,0.278371075 97.013351,0.361978991 L97.0649913,0.533096332 C97.3712426,1.46416831 97.5472597,2.43460217 97.5878493,3.41576538 L97.5878493,13.5906657 C97.5472597,14.571829 97.3712426,15.5422628 97.0649913,16.4733348 L97.013351,16.6444521 C96.9869836,16.7272412 97.001405,16.8179145 97.0520813,16.8879653 C97.106246,16.959029 97.1897381,17.0003764 97.2780076,16.9999281 L99.2145186,16.9999281 C99.2875337,17.0016227 99.358162,16.9732845 99.41041,16.9212522 C99.4626581,16.86922 99.4921059,16.7978953 99.4920852,16.7234294 L99.4920852,9.01656758 L101.18976,9.01656758 L101.18976,9.04947477 L106.528075,16.8484767 C106.5809,16.9220192 106.664603,16.9659097 106.754002,16.9669425 L108.690513,16.9669425 C108.807434,16.962214 108.913106,16.8945623 108.968079,16.7892437 C109.01064,16.7233506 109.01064,16.6379495 108.968079,16.5720563 L108.851889,16.4535905 Z M99.5049953,8.08858508 L99.45981,8.04251503 L99.45981,0.908238195 L101.815899,0.908238195 C102.770187,0.862406945 103.700331,1.22243253 104.384374,1.90240322 C105.068417,2.58237391 105.445002,3.52129722 105.424264,4.49512092 C105.458695,5.47360639 105.086665,6.42149809 104.399682,7.10564444 C103.712698,7.78979079 102.774516,8.14670053 101.815899,8.08858508 L99.5049953,8.08858508 Z" id="Shape" fill="#365072" fill-rule="nonzero"></path>
                    <path d="M88.6046466,14.8437204 C88.3910473,14.9045652 88.186973,14.9930192 87.9979839,15.1066725 C86.8586151,15.7267863 85.5708341,16.0486035 84.2625775,16.0401526 L80.75893,16.0401526 C80.7137546,16.0401526 80.6771327,16.0048343 80.6771327,15.961267 L80.6771327,9.01275667 C80.6771327,8.96918934 80.7137546,8.93387103 80.75893,8.93387103 L83.3832574,8.93387103 C84.5354507,8.88480318 85.6879154,9.02484496 86.7914749,9.34802065 L87.1868281,9.45320151 C87.288413,9.46646446 87.3913165,9.44047286 87.4731184,9.38088967 C87.5479821,9.31749856 87.5923796,9.22710676 87.5958142,9.13108514 L87.5958142,7.77688161 C87.593904,7.68236972 87.5490428,7.59343753 87.4731184,7.53365088 C87.3968836,7.46836686 87.2943477,7.43942459 87.1936445,7.45476524 C87.0549769,7.48074216 86.9183258,7.51588536 86.7846585,7.5599461 C85.7293823,7.86848198 84.628378,8.0062068 83.5264026,7.96752192 L80.7316642,7.96752192 C80.710626,7.96937425 80.6897537,7.96258157 80.6741808,7.94881453 C80.6586079,7.9350475 80.6497795,7.91558364 80.649867,7.89521008 L80.649867,1.03873301 C80.649867,0.99516567 80.6864889,0.959847365 80.7316642,0.959847365 L83.9490215,0.959847365 C85.2652738,0.956925032 86.5588346,1.29035214 87.6980607,1.92619648 C87.8856171,2.03641427 88.0872625,2.12259889 88.297907,2.18257482 C88.3952591,2.1959917 88.4940153,2.16980043 88.5705644,2.11026298 C88.6483126,2.04900965 88.6933681,1.95727826 88.6932602,1.86045845 L88.6932602,0.295893209 C88.6896485,0.133980426 88.5544095,0.00355524605 88.3865207,0 L78.3118298,0 C78.2128901,-0.00203148192 78.118976,0.0420301868 78.0596217,0.118400514 C78.0032491,0.194560697 77.9857028,0.291255957 78.0119067,0.381352655 L78.0664382,0.545697743 C78.4108293,1.52478155 78.5970494,2.54911883 78.6185694,3.58279497 L78.6185694,13.417205 C78.5962974,14.4508106 78.4100973,15.4750381 78.0664382,16.4543023 L78.0119067,16.6186473 C77.9857028,16.708744 78.0032491,16.8054393 78.0596217,16.8815995 C78.118976,16.9579698 78.2128901,17.0020315 78.3118298,17 L88.6932602,17 C88.8626678,17 89,16.8674843 89,16.7041068 L89,15.1395416 C89,15.0427217 88.9550522,14.9509904 88.877304,14.889737 C88.7983328,14.8353709 88.6980686,14.8184493 88.6046466,14.8437204 Z" id="Path" fill="#365072" fill-rule="nonzero"></path>
                    <path d="M33.8263798,16.4211369 L33.5816139,16.1580854 C32.7309787,15.2853769 31.9531857,14.3416911 31.2563372,13.3368586 L28.3255868,9.08200134 C28.3159198,9.05889824 28.3159198,9.03276529 28.3255868,9.00966219 C28.338228,8.98434015 28.3623682,8.96708759 28.3899989,8.96362819 C30.9664827,8.54274586 32.4737258,6.92497943 32.4737258,4.51805863 C32.4737258,1.88754411 30.4060975,7.23231819e-05 27.4431411,7.23231819e-05 L22.2901734,7.23231819e-05 C22.1984462,-0.00204140669 22.1116091,0.0422876344 22.0582898,0.118523086 C22.0022242,0.190949799 21.9853059,0.287185579 22.0132014,0.374998253 L22.064731,0.545981697 C22.3647921,1.47552044 22.5402965,2.44223377 22.586469,3.41981882 L22.586469,13.5801812 C22.5402965,14.5577662 22.3647921,15.5244796 22.064731,16.4540183 L22.0132014,16.6184255 C21.9853318,16.7083708 22.0021585,16.80654 22.0582898,16.8814769 C22.1116091,16.9577124 22.1984462,17.0020414 22.2901734,16.9999277 L24.2225363,16.9999277 C24.3801364,16.9999277 24.5088885,16.8713588 24.5123907,16.7104935 L24.5123907,9.12145906 C24.5105757,9.10116204 24.5172314,9.08102506 24.5307208,9.06600081 C24.5442101,9.05097655 24.5632814,9.04245921 24.583244,9.04254362 L26.1420167,9.04254362 C26.1654818,9.04302501 26.1871907,9.05533843 26.1999876,9.07542505 L31.5204268,16.8485955 C31.5743552,16.9283716 31.663826,16.9752796 31.7587515,16.9735449 L33.6911144,16.9735449 C33.8152729,16.9710199 33.9274243,16.8972289 33.9809689,16.7828326 C34.0166672,16.7054304 34.0012324,16.613506 33.9423216,16.5526626 L33.8263798,16.4211369 Z M24.551038,8.08240582 C24.5119068,8.08240582 24.4801847,8.05001848 24.4801847,8.01006667 L24.4801847,1.03262688 C24.4783697,1.01232987 24.4850254,0.992192887 24.4985147,0.977168633 C24.5120041,0.962144379 24.5310753,0.953627037 24.551038,0.953711449 L26.8183437,0.953711449 C27.7638066,0.909683803 28.6847419,1.26836486 29.361267,1.94411593 C30.0377922,2.619867 30.4091858,3.55203614 30.3867739,4.51805863 C30.4190029,5.48700722 30.0507167,6.42514259 29.3719416,7.10314106 C28.6931665,7.78113952 27.766457,8.1365181 26.8183437,8.08240582 L24.551038,8.08240582 Z" id="Shape" fill="#365072" fill-rule="nonzero"></path>
                    <path d="M5.27461956,0 L0.892394904,0 L0.788211257,0 L0.30636189,0 C0.208932884,0.00477469171 0.120605737,0.0592269169 0.0719486838,0.144511864 C0.0148783646,0.213934522 -0.00679596624,0.306252872 0.0133453823,0.394123267 L0.0589257279,0.545203852 C0.367726083,1.46826332 0.549571422,2.4296865 0.599378397,3.40259754 L0.599378397,13.6169589 C0.552464119,14.5869568 0.375029039,15.546016 0.0719486838,16.4677838 L0.0133453823,16.6188644 C-0.0148282514,16.7087063 0.00218205985,16.8067626 0.0589257279,16.8816133 C0.11282667,16.957761 0.200611039,17.0020391 0.293338934,16.9999278 L1.31564097,16.9999278 L1.49145087,16.9999278 L5.26810808,16.9999278 C10.2428772,16.9999278 14,13.3476413 14,8.50649384 C14,3.66534638 10.171251,0 5.27461956,0 Z M4.69509802,15.9028743 L2.61793656,15.9028743 C2.57720235,15.9028743 2.54319312,15.8715675 2.53979882,15.8306179 L2.53979882,1.16266364 C2.54319312,1.12171399 2.57720235,1.09040722 2.61793656,1.09040722 L4.7016095,1.09040722 C8.8624439,1.09040722 11.8642791,4.20398151 11.8642791,8.49992512 C11.8772582,12.9272432 8.99267346,15.9028743 4.69509802,15.9028743 Z" id="Shape" fill="#365072" fill-rule="nonzero"></path>
                    <path d="M69.3791072,1.19778751 C68.3082556,0.393877071 66.9893526,-0.0281504647 65.6403887,0.00145830442 L60.2705955,0.00145830442 C60.1724644,0.00220168201 60.0814422,0.0517223838 60.0289548,0.132923052 C59.9903484,0.211892249 59.9903484,0.303736875 60.0289548,0.382706072 L60.0759405,0.540463769 C60.3600067,1.37254663 60.5381089,2.23578499 60.6062076,3.11059958 L60.6062076,13.8775624 C60.5233866,14.7586853 60.3294944,15.6263783 60.0289548,16.4608447 L60.0289548,16.6186024 C60,16.708506 60.0174473,16.8066297 60.0759405,16.8815319 C60.1315033,16.957732 60.2219943,17.0020405 60.3175812,16.9999277 L62.3312536,16.9999277 C62.4113625,16.9999277 62.4881903,16.968686 62.5448359,16.9132136 C62.6014814,16.8577411 62.6333045,16.7825043 62.6333045,16.7040545 L62.6333045,9.11853853 C62.6333045,9.07497495 62.6693666,9.03965968 62.7138514,9.03965968 L65.6806622,9.03965968 C67.0230066,9.0904888 68.3433106,8.69425858 69.4260929,7.9156361 C70.4670181,7.08835376 71.0490238,5.8290988 70.9967574,4.51727238 C71.0133234,3.2247812 70.4155639,1.99815402 69.3791072,1.19778751 L69.3791072,1.19778751 Z M64.9960135,8.07996703 L62.673578,8.07996703 C62.6528613,8.0818192 62.632308,8.07502711 62.6169732,8.06126126 C62.6016383,8.04749541 62.5929449,8.02803322 62.5930304,8.00766142 L62.5930304,1.04002981 C62.5930304,0.996466223 62.6290931,0.96115096 62.673578,0.96115096 L64.9960135,0.96115096 C67.2647511,0.96115096 68.7951422,2.39411671 68.7951422,4.51727238 C68.7951422,6.64042805 67.3385858,8.07996703 64.9960135,8.07996703 Z" id="Shape" fill="#365072" fill-rule="nonzero"></path>
                    <path d="M53.9518992,16.5849523 C53.1799494,15.5999888 52.5541146,14.5184122 52.0920436,13.3707237 L46.6092725,0.191069153 C46.5650891,0.0749582855 46.4485169,-0.00172022424 46.3188862,2.93256686e-05 L44.8116427,2.93256686e-05 C44.7089127,0.00244877638 44.6137245,0.0519755353 44.5560914,0.133023901 C44.4984583,0.214072267 44.4854829,0.316654083 44.5212563,0.408424775 L44.7286751,0.89582829 C44.8252511,1.1262965 44.8252511,1.38329228 44.7286751,1.6137605 L40.1723748,12.5539935 L39.7091394,13.6275985 C39.2389901,14.5892325 38.4093147,15.9855777 38.0359608,16.5981253 C37.9880131,16.6823468 37.9880131,16.7839518 38.0359608,16.8681732 C38.0880818,16.9514728 38.1830858,17.0017534 38.2848634,16.9999532 L39.5846881,16.9999532 C39.5846881,16.9999532 40.5180728,14.7736554 41.3131784,12.8635606 C42.1843375,11.4540423 44.1340745,10.228947 48.469128,9.86010106 L51.3384219,16.815481 C51.3865042,16.9277548 51.5015257,17.0008044 51.6288082,16.9999532 L53.6545988,16.9999532 C53.7863287,16.9986229 53.9063232,16.9274955 53.9657271,16.815481 C54.0114243,16.7400794 54.0114243,16.6471808 53.9657271,16.5717792 L53.9518992,16.5849523 Z M43.2974852,9.57029357 L43.2974852,9.57029357 C43.0262117,9.67593096 42.7628632,9.79916879 42.5092936,9.93913947 C43.0209267,8.70087108 45.4822969,2.79275008 45.4822969,2.79275008 C45.4822969,2.79275008 45.4822969,2.79275008 45.4822969,2.79275008 L45.4822969,2.79275008 L47.9160112,8.64817881 C46.3357399,8.72639382 44.77774,9.0374573 43.2974852,9.57029357 L43.2974852,9.57029357 Z" id="Shape" fill="#365072" fill-rule="nonzero"></path>
                    <path d="M155.951899,16.5783657 C155.179949,15.5934023 154.554115,14.5118256 154.092044,13.3641372 L148.609273,0.191069153 C148.565089,0.0749582855 148.448517,-0.00172022424 148.318886,2.93256686e-05 L146.811643,2.93256686e-05 C146.708913,0.00244877638 146.613724,0.0519755353 146.556091,0.133023901 C146.498458,0.214072267 146.485483,0.316654083 146.521256,0.408424775 L146.728675,0.89582829 C146.825251,1.1262965 146.825251,1.38329228 146.728675,1.6137605 L142.172375,12.5539935 L141.709139,13.6275985 C141.23899,14.5892325 140.409315,15.9855777 140.035961,16.5981253 C139.988013,16.6823468 139.988013,16.7839518 140.035961,16.8681732 C140.088082,16.9514728 140.183086,17.0017534 140.284863,16.9999532 L141.57086,16.9999532 C141.57086,16.9999532 142.504245,14.7736554 143.29935,12.8635606 C144.17051,11.4540423 146.120247,10.228947 150.4553,9.86010106 L153.35225,16.8088944 C153.400332,16.9211683 153.515354,16.9942178 153.642636,16.9933174 L155.668427,16.9933174 C155.792219,16.9899306 155.905071,16.9249258 155.965727,16.8220675 C156.011424,16.7466659 156.011424,16.6537673 155.965727,16.5783657 L155.951899,16.5783657 Z M145.297485,9.56370703 L145.297485,9.56370703 C145.028446,9.66935337 144.767398,9.79259595 144.516208,9.93255294 C145.020927,8.69428455 147.482297,2.78616355 147.482297,2.78616355 C147.482297,2.78616355 147.482297,2.78616355 147.482297,2.78616355 L147.482297,2.78616355 L149.916011,8.64159227 C148.33574,8.71980729 146.77774,9.03087077 145.297485,9.56370703 Z" id="Shape" fill="#365072" fill-rule="nonzero"></path>
                </g>
            </g>
        </g>
    </g>
</svg>