<svg width="601" height="116" viewBox="0 0 601 116" fill="none" xmlns="http://www.w3.org/2000/svg">
<path d="M58.121 3.41166C28.0447 3.41166 3.57559 27.8999 3.57559 57.9999C3.57559 88.0999 28.0447 112.588 58.121 112.588C88.1974 112.588 112.667 88.0999 112.667 57.9999C112.667 27.8999 88.1974 3.41166 58.121 3.41166ZM78.357 35.0466L69.3909 44.0198L60.5351 35.1571L78.354 17.3243L78.357 35.0466ZM37.8881 80.3792L46.8543 71.406L55.71 80.2687L37.8912 98.1015L37.8881 80.3792ZM55.71 57.7144L46.8543 66.5771L37.9986 57.7144L46.8543 48.8517L55.71 57.7144ZM49.2684 46.4357L56.4155 39.283V53.5885L49.2684 46.4357ZM56.4155 61.8372V76.1428L49.2684 68.99L56.4155 61.8372ZM59.8296 61.8372L66.9768 68.99L59.8296 76.1428V61.8372ZM60.5351 57.7144L69.3909 48.8517L78.2466 57.7144L69.3909 66.5771L60.5351 57.7144ZM59.8296 53.5885V39.283L66.9768 46.4357L59.8296 53.5885ZM56.4155 31.0373L36.8605 11.467C42.8513 8.71638 49.4586 7.08935 56.4155 6.85911V31.0373ZM55.71 35.1601L46.8543 44.0228L37.8881 35.0496V17.3273L55.71 35.1601ZM37.8881 39.8785L44.4402 46.4357L37.8881 52.993V39.8785ZM37.8881 62.4328L44.4402 68.99L37.8881 75.5472V62.4328ZM56.4155 84.3915V109.141C49.3083 108.907 42.5629 107.213 36.471 104.352L56.4155 84.3915ZM59.8296 84.3915L79.7742 104.352C73.6822 107.213 66.9369 108.907 59.8296 109.141V84.3915ZM60.5351 80.2656L69.3909 71.4029L78.357 80.3761V98.0984L60.5351 80.2656ZM78.357 75.5472L71.805 68.99L78.357 62.4328V75.5472ZM78.357 52.993L71.805 46.4357L78.357 39.8785V52.993ZM59.8296 31.0373V6.85911C66.7866 7.08935 73.3939 8.71331 79.3846 11.467L59.8296 31.0373ZM6.98967 57.9999C6.98967 38.316 18.1521 21.1984 34.4741 12.6397V31.6329V54.1871V61.2417V83.7959V103.36C18.1552 94.8014 6.98967 77.6808 6.98967 57.9999ZM81.7711 103.36V83.7959V61.2417V54.1871V31.6329V12.6397C98.093 21.1954 109.255 38.316 109.255 57.9999C109.255 77.6838 98.09 94.8014 81.7711 103.36Z" fill="#171717"></path>
<path d="M508.175 26.8824C505.591 26.8824 503.577 28.8984 503.577 31.4859C503.577 33.9963 505.583 36.0123 508.175 36.0123C510.76 36.0123 512.774 34.004 512.774 31.4859C512.774 28.8984 510.76 26.8824 508.175 26.8824Z" fill="#171717"></path>
<path d="M511.331 43.2035H504.649V79.4453H511.331V43.2035Z" fill="#171717"></path>
<path d="M174.534 28.3886H167.212V79.4377H174.534V28.3886Z" fill="#171717"></path>
<path d="M200.234 42.4775C189.455 42.4775 181.917 50.1707 181.917 61.2472C181.917 72.6095 189.741 80.1637 201.322 80.1559C207.14 80.1559 211.591 78.6498 214.894 76.6338L212.88 70.663C209.863 72.3854 206.561 73.7526 201.746 73.7526C194.131 73.7526 189.031 68.7937 189.031 61.3167C189.031 53.6234 194.062 48.7341 200.38 48.7341C204.979 48.7341 208.428 51.3911 210.295 54.558L215.032 50.3175C211.939 45.6444 206.483 42.4775 200.234 42.4775Z" fill="#171717"></path>
<path fill-rule="evenodd" clip-rule="evenodd" d="M218.234 61.3244C218.234 50.3947 226.282 42.4852 237.554 42.4852C248.904 42.4852 256.804 50.3947 256.804 61.3244C256.804 72.3237 248.904 80.1637 237.554 80.1637C226.282 80.1637 218.234 72.3237 218.234 61.3244ZM249.768 61.3244C249.768 53.917 244.737 48.8113 237.562 48.8113C230.379 48.8113 225.279 53.917 225.279 61.3244C225.279 68.8015 230.448 73.8376 237.562 73.8376C244.807 73.8299 249.768 68.6547 249.768 61.3244Z" fill="#171717"></path>
<path d="M296.069 79.4377V57.725C296.069 48.093 291.254 42.4852 282.775 42.4852C277.174 42.4852 273.223 44.787 270.137 48.0234V43.2035H263.386V79.4377H270.137V54.1255C272.799 51.0359 276.749 48.6645 280.985 48.6645C286.301 48.6645 289.318 52.1868 289.318 58.6596V79.4377H296.069Z" fill="#171717"></path>
<path fill-rule="evenodd" clip-rule="evenodd" d="M341.513 65.202C341.513 73.6136 335.626 79.4377 325.781 79.4377H306.245V28.3886H323.05C332.671 28.3886 338.489 33.5638 338.489 41.4038C338.489 45.9302 336.552 50.1012 331.521 52.6889C337.563 53.9865 341.513 58.6596 341.513 65.202ZM313.568 50.8273H322.834C328.22 50.8273 331.452 47.0193 331.452 42.4157C331.452 37.673 328.149 34.6529 322.255 34.6529H313.568V50.8273ZM334.183 64.6304C334.183 59.5943 330.735 56.7904 325.418 56.7904H313.568V73.181H324.701C330.665 73.1888 334.183 69.8751 334.183 64.6304Z" fill="#171717"></path>
<path d="M364.536 80.2332L379.335 43.2035H372.144L361.944 70.1687L350.455 43.2035H342.987L358.356 77.9314L358.07 78.7193C355.054 86.2735 351.466 88.7143 346.799 88.7143H346.435L347.801 94.9709H348.449C355.918 94.9709 360.585 90.6609 364.536 80.2332Z" fill="#171717"></path>
<path fill-rule="evenodd" clip-rule="evenodd" d="M427.726 53.554C427.726 69.0872 417.025 79.4377 400.575 79.4377H383.91V28.3886H400.575C417.025 28.3886 427.726 38.4532 427.726 53.554ZM420.111 53.6312C420.111 42.1299 412.426 34.9387 400.074 34.9387H391.24V72.903H400.074C412.496 72.8953 420.111 65.4955 420.111 53.6312Z" fill="#171717"></path>
<path fill-rule="evenodd" clip-rule="evenodd" d="M439.407 63.2632H466.704V62.3286C466.704 49.8232 459.591 42.4852 449.969 42.4852C439.908 42.4852 432.371 50.109 432.371 61.394C432.371 71.9606 439.7 80.0865 451.69 80.0865C457.863 80.0865 461.744 78.9356 465.262 77.2826L463.611 71.6053C460.594 73.1888 456.567 74.1929 452.045 74.1929C444.507 74.1929 440.055 70.0914 439.407 63.2632ZM449.969 48.0929C455.069 48.0929 458.943 51.7619 459.591 58.1575H439.415C440.271 51.8314 444.654 48.0929 449.969 48.0929Z" fill="#171717"></path>
<path d="M469.767 76.5642L472.352 71.2423C475.438 73.2583 479.535 74.5482 483.771 74.5482C488.077 74.5482 490.885 72.7485 490.885 69.5893C490.885 66.4997 488.015 65.4183 482.336 63.6958C476.518 61.9733 471.349 59.4552 471.349 52.9128C471.349 46.44 476.665 42.4852 483.701 42.4852C489.735 42.4852 493.902 44.787 496.124 47.9462L491.671 51.6152C490.021 49.3829 487.143 47.8767 483.701 47.8767C480.615 47.8767 478.1 49.4602 478.1 52.3335C478.1 55.57 481.186 56.6436 486.503 58.3738C492.89 60.4593 497.636 62.6144 497.636 69.1567C497.636 75.8459 492.389 80.1559 483.848 80.1559C477.807 80.1637 473.502 78.7965 469.767 76.5642Z" fill="#171717"></path>
<path fill-rule="evenodd" clip-rule="evenodd" d="M554.407 43.2035V77.6456C554.407 89.4404 546.791 95.1177 535.951 95.1177C528.551 95.1177 523.668 93.6115 519.578 91.2324L522.163 85.4779C525.681 87.4939 529.994 89.0002 535.951 89.0002C542.555 89.0002 547.586 85.2617 547.586 77.7151V72.4627C545.148 76.85 540.333 79.5844 534.516 79.5844C524.532 79.5844 517.927 72.2464 517.927 61.4635C517.927 50.387 525.396 42.4852 536.097 42.4852C541.051 42.4852 545.148 44.2077 547.879 46.2932L548.165 43.2035H554.407ZM547.725 61.6102V52.1945C545.425 50.3252 542.124 48.5255 537.17 48.5255C529.917 48.5255 524.886 54.1332 524.886 61.5407C524.886 68.5852 529.122 73.5518 536.02 73.5518C542.988 73.5441 547.725 67.8668 547.725 61.6102Z" fill="#171717"></path>
<path d="M596.757 79.4377V57.725C596.757 48.093 591.943 42.4852 583.463 42.4852C577.862 42.4852 573.912 44.787 570.825 48.0234V43.2035H564.074V79.4377H570.825V54.1255C573.487 51.0359 577.438 48.6645 581.673 48.6645C586.989 48.6645 590.006 52.1868 590.006 58.6596V79.4377H596.757Z" fill="#171717"></path>
</svg>
