<?xml version="1.0" encoding="UTF-8"?><svg id="b" xmlns="http://www.w3.org/2000/svg" width="650" height="114.963" viewBox="0 0 650 114.963"><defs><style>.d{fill:#db1e38;}</style></defs><g id="c"><path class="d" d="M289.754.05l-27.869,24.307L250.321,0h-23.555l-16.079,45.027,7.952,17.233-20.544,17.961-39.634,34.667,27.217.05,18.663.025,27.769-24.357,11.414,24.357h61.132l-29.274-62.16L335.484,0l-45.73.05Z"/><path class="d" d="M147.248.276l-33.112,47.586.853-47.586H41.014L0,114.963h52.051l22.526-63.088-.727,63.088h32.836l44.024-63.088-22.501,63.088h22.576l43.045-37.652L220.796,1.906l.577-1.631h-74.125Z"/><path d="M315.466,33.589c-.494,1.21-.806,2.487-.928,3.788-.01.638.164,1.265.502,1.806,1.104,1.505,4.089,2.233,9.031,2.233h18.839c2.935,0,4.741.401,5.468,1.204.745.99.889,2.309.376,3.437-4.515,13.195-6.974,20.068-7.3,20.921-.978,2.057-3.512,3.085-7.676,3.085h-1.003c-1.45.063-2.887-.294-4.139-1.028-1.136-.646-1.807-1.881-1.731-3.186.027-.584.111-1.163.251-1.731.125-.527.778-2.508,1.906-5.845h-22.576l-2.032,5.845c-.655,1.603-1.069,3.293-1.229,5.017v.577c0,.929.35,1.824.978,2.508.402.436.889.786,1.43,1.028,2.04.614,4.169.877,6.296.778h45.153c3.293.182,6.445-1.356,8.328-4.064.587-.831,1.083-1.722,1.48-2.659l8.002-22.877c.454-1.102.766-2.256.928-3.437v-.151c.001-.524-.147-1.037-.426-1.48-1.054-1.731-3.913-2.508-8.704-2.508h-19.767c-2.759,0-4.465-.401-5.167-1.355-.687-1.33-.687-2.91,0-4.239.217-.619.418-1.221.602-1.806l3.462-9.708c.337-1.086.456-2.229.351-3.361.098-1.343-.56-2.629-1.706-3.336-1.611-.767-3.385-1.129-5.167-1.054h-2.007l-20.57,18.111-1.254,3.487Z"/><path d="M579.759,7.275c-.753-1.38-2.508-2.057-5.017-2.057h-48.489c-1.287-.012-2.568.191-3.788.602-1.93.65-3.571,1.955-4.641,3.687-.706,1.134-1.278,2.347-1.706,3.612l-21.673,60.906h24.583l6.045-17.208h10.034c2.784.452,4.214,1.831,4.214,4.114-.148,1.572-.537,3.112-1.154,4.565l-2.985,8.529h22.777l2.508-7.525c.788-1.72,1.28-3.56,1.455-5.443v-.326c.008-.628-.139-1.248-.426-1.806-.888-1.354-2.42-2.145-4.039-2.082,2.923-.151,5.594-1.701,7.174-4.164.675-.962,1.223-2.008,1.63-3.111l12.542-34.818c.781-1.713,1.273-3.544,1.455-5.418v-.251c.008-.628-.139-1.248-.426-1.806M554.975,17.76l-8.077,22.576c-1.054,2.985-1.906,5.218-2.508,6.647-2.043,3.576-5.982,5.634-10.084,5.268h-7.927l7.525-21.748v.151l7.927-21.748h7.3c.898-.027,1.797.032,2.684.176,2.809.452,4.214,1.831,4.214,4.114-.149,1.569-.529,3.108-1.129,4.565"/><path d="M649.194,7.35c-.928-1.43-3.336-2.132-7.249-2.132h-45.153c-3.224-.182-6.334,1.223-8.328,3.763-.777,1.007-1.418,2.112-1.906,3.286l-18.237,51.323c-.863,1.913-1.405,3.956-1.605,6.045v.326c-.003.657.134,1.307.401,1.906,1.151,1.584,3.076,2.412,5.017,2.157h47.21c2.172.061,4.335-.297,6.372-1.054,2.842-1.172,5.1-3.429,6.271-6.271.226-.401,1.304-3.462,3.186-9.206h-22.024c-.753,2.124-1.405,3.88-1.957,5.268-.805,2.282-2.397,4.203-4.49,5.418-2.088,1.191-4.473,1.757-6.873,1.631h-9.457l5.744-15.753c.778-1.981,1.243-4.072,1.38-6.196.048-1.023-.293-2.027-.953-2.809-1.817-1.449-4.139-2.109-6.447-1.831h-2.057l1.204-3.361h43.171l1.455-4.114h-31.557l1.756-5.167,7.525-21.322h6.647c1.131-.035,2.262.083,3.361.351,1.957.343,3.379,2.052,3.361,4.039v.276c.025.367.025.736,0,1.104-.176.853-.878,3.06-2.132,6.622h23.805l2.082-6.271c.677-1.651,1.108-3.392,1.279-5.167v-.452c.039-.897-.226-1.781-.753-2.508"/><path d="M510.124,8.504v-.401c-.062-.269-.155-.53-.276-.778-.35-.707-.948-1.261-1.681-1.555l-.878-.276h-52.829l-1.254.251c-2.055.585-3.834,1.884-5.017,3.662h0c-.251.376-.477.753-.702,1.129-.065.155-.141.306-.226.452-.234.431-.444.875-.627,1.329l-16.029,44.952-2.508,7.35c-.747,1.657-1.206,3.431-1.355,5.243v.376c-.014.192-.014.385,0,.577v.401c0,.251.176.527.276.778.367.704.971,1.254,1.706,1.555l.853.276h1.355c.292.026.586.026.878,0h48.664c.612-.003,1.224-.045,1.831-.125h.125c.423-.059.841-.143,1.254-.251,2.099-.562,3.925-1.863,5.142-3.662h0v-.125c.251-.376.477-.753.702-1.129.065-.155.141-.306.226-.452.226-.431.427-.875.602-1.329l16.054-44.952,2.508-7.35c.767-1.652,1.234-3.427,1.38-5.243v-.251c.012-.192.012-.385,0-.577M484.136,18.011l-14.223,39.684c-.677,1.982-1.279,3.587-1.781,4.892-.276.702-.552,1.304-.778,1.781-1.986,3.553-5.849,5.636-9.908,5.343h-2.759c-1.989-.232-3.476-1.937-3.437-3.938.004-.475.072-.947.201-1.405.215-1.079.526-2.137.928-3.161l14.198-39.659c.702-1.982,1.304-3.612,1.831-5.017.251-.702.527-1.279.753-1.781,2.017-3.537,5.902-5.582,9.959-5.243h2.759c1.993.244,3.477,1.956,3.437,3.963-.016.466-.083.929-.201,1.38-.228,1.081-.556,2.14-.978,3.161"/><path d="M389.366,5.218c.816,1.223,1.285,2.645,1.355,4.114h15.653l-19.265,54.258c-.877,1.91-1.428,3.953-1.63,6.045v.326c-.005.66.14,1.312.426,1.906,1.153,1.579,3.08,2.398,5.017,2.132h16.706l18.387-52.879c.261-.615.462-1.253.602-1.906l3.487-9.883h11.765l1.555-2.308c.433-.649.928-1.254,1.48-1.806h-55.538Z"/><path d="M488.35,91.71c-.679-.408-1.467-.601-2.258-.552h-17.384c-.869-.029-1.732.161-2.508.552-.67.32-1.274.762-1.781,1.304-.466.494-.848,1.062-1.129,1.681-.252.558-.454,1.137-.602,1.731-.136.55-.204,1.114-.201,1.681-.031.584.072,1.168.301,1.706.271.524.667.972,1.154,1.304.704.391,1.504.574,2.308.527h17.359c.865.016,1.723-.164,2.508-.527,1.312-.612,2.356-1.683,2.935-3.01.251-.538.445-1.102.577-1.681.142-.566.218-1.147.226-1.731.036-.579-.076-1.157-.326-1.681-.25-.545-.662-1-1.179-1.304h0Z"/><path d="M303.3,83.608l12.542,26.665h305.758l8.228-26.665h-326.528ZM416.783,103.675c-.194.751-.636,1.414-1.254,1.881-.572.495-1.301.771-2.057.778-.66.026-1.293-.263-1.706-.778-.399-.541-.52-1.238-.326-1.881.188-.754.62-1.424,1.229-1.906.576-.488,1.302-.762,2.057-.778.663-.043,1.303.249,1.706.778.413.563.543,1.285.351,1.957v-.05ZM456.091,89.051c-.128.579-.456,1.095-.928,1.455-.454.389-1.033.602-1.63.602h-24.132c-.868-.022-1.729.168-2.508.552-.674.313-1.279.757-1.781,1.304-.472.499-.854,1.076-1.129,1.706-.259.546-.461,1.118-.602,1.706-.124.552-.191,1.115-.201,1.681-.036.587.076,1.173.326,1.706.263.529.661.979,1.154,1.304.695.39,1.487.573,2.283.527h24.157c.515-.028,1.011.196,1.329.602.311.417.404.958.251,1.455-.144.586-.48,1.107-.953,1.48-.451.374-1.019.578-1.605.577h-25.511c-1.046.047-2.078-.252-2.935-.853-.797-.559-1.429-1.321-1.831-2.207-.438-.957-.701-1.985-.778-3.035-.128-2.294.431-4.573,1.605-6.547.605-1.113,1.374-2.128,2.283-3.01.888-.882,1.902-1.626,3.01-2.207,1.084-.565,2.289-.858,3.512-.853h25.085c.517-.037,1.017.189,1.329.602.315.436.39,1.001.201,1.505v-.05ZM493.718,96.376c-.299,1.14-.746,2.236-1.329,3.261-.605,1.113-1.374,2.128-2.283,3.01-.88.891-1.896,1.636-3.01,2.207-1.082.574-2.287.875-3.512.878h-19.591c-1.047-.024-2.061-.365-2.91-.978-.777-.573-1.398-1.332-1.806-2.207-.443-.929-.706-1.933-.778-2.96-.09-1.076-.014-2.159.226-3.211.29-1.159.737-2.273,1.329-3.311.622-1.102,1.39-2.114,2.283-3.01.885-.885,1.9-1.63,3.01-2.207,1.084-.565,2.289-.858,3.512-.853h19.591c1.052.013,2.076.345,2.935.953.766.589,1.377,1.355,1.781,2.233.443.922.715,1.916.803,2.935.074,1.114-.037,2.233-.326,3.311l.075-.05ZM535.535,91.108l-2.985,12.542c-.153.575-.487,1.085-.953,1.455-.448.383-1.016.596-1.605.602-.508.029-.997-.197-1.304-.602-.311-.417-.404-.958-.251-1.455l2.207-9.382c.276-1.179.351-1.756.201-1.756-.542.317-1.04.705-1.48,1.154l-12.016,10.761c-.457.421-.994.746-1.58.953-.589.207-1.207.318-1.831.326-.576.003-1.147-.108-1.681-.326-.473-.193-.875-.525-1.154-.953l-6.898-10.686c-.452-.778-.778-1.154-.903-1.154s-.351.577-.652,1.756l-2.207,9.382c-.153.575-.487,1.085-.953,1.455-.448.383-1.016.596-1.605.602-.514.024-1.008-.2-1.329-.602-.3-.422-.392-.957-.251-1.455l2.985-12.542c.261-1.115.845-2.127,1.681-2.91.804-.784,1.887-1.217,3.01-1.204.615-.015,1.219.16,1.731.502.455.355.853.778,1.179,1.254l7.224,11.263c.116.166.26.31.426.426.158.178.39.271.627.251.257.005.507-.084.702-.251.237-.109.457-.253.652-.426l12.542-11.263c.508-.523,1.102-.956,1.756-1.279.623-.312,1.31-.475,2.007-.477.996-.103,1.966.362,2.508,1.204.398.913.443,1.941.125,2.885l.075-.05ZM542.182,103.65c-.184.742-.607,1.403-1.204,1.881-.586.488-1.32.762-2.082.778-.66.026-1.293-.263-1.706-.778-.38-.549-.49-1.241-.301-1.881.177-.752.601-1.423,1.204-1.906.586-.488,1.32-.762,2.082-.778.653-.026,1.278.263,1.681.778.403.58.497,1.32.251,1.982l.075-.075ZM577.301,103.65c-.129.592-.467,1.118-.953,1.48-.448.383-1.016.596-1.605.602-.602.048-1.171-.282-1.43-.828l-6.848-13.345c-.165-.278-.359-.539-.577-.778-.197-.244-.49-.391-.803-.401-.376.025-.735.165-1.028.401-.324.221-.619.483-.878.778l-13.295,13.395c-.474.475-1.111.752-1.781.778-.507.024-.994-.201-1.304-.602-.31-.427-.411-.97-.276-1.48.115-.479.378-.909.753-1.229l13.746-14.047c.671-.682,1.462-1.235,2.333-1.631.858-.393,1.79-.598,2.734-.602.803-.011,1.597.178,2.308.552.667.337,1.204.883,1.53,1.555l7.024,13.997c.117.215.21.442.276.677.045.26.028.526-.05.778l.126-.05ZM618.967,89.076l-1.881,7.35c-.288,1.144-.735,2.242-1.329,3.261-.613,1.101-1.372,2.114-2.258,3.01-.878.893-1.895,1.638-3.01,2.207-1.089.578-2.304.88-3.537.878h-19.591c-1.048-.014-2.066-.356-2.91-.978-.772-.578-1.392-1.336-1.806-2.207-.454-.925-.718-1.931-.778-2.96-.094-1.077-.01-2.162.251-3.211l1.731-7.3c.133-.57.461-1.076.928-1.43.448-.383,1.016-.596,1.605-.602.517-.037,1.017.189,1.329.602.303.411.396.94.251,1.43l-1.731,7.3c-.136.55-.204,1.114-.201,1.681-.036.587.076,1.173.326,1.706.26.523.648.972,1.129,1.304.712.393,1.521.576,2.333.527h17.233c.865.013,1.722-.167,2.508-.527.655-.345,1.255-.784,1.781-1.304.467-.503.848-1.079,1.129-1.706.236-.547.437-1.108.602-1.681l1.706-7.3c.139-.574.477-1.08.953-1.43.448-.383,1.016-.596,1.605-.602.517-.042,1.02.186,1.329.602.264.428.328.95.176,1.43l.125-.05Z"/><path d="M385.578,15.051l.502-1.43c0-.326.176-.627.251-.928v-.251c.174-.664.275-1.346.301-2.032v-.652c.048-.902-.228-1.792-.778-2.508-.853-1.355-3.01-2.057-6.447-2.157h-34.391l-4.089,3.612h15.929c.889-.019,1.778.032,2.659.151,2.809.477,4.214,1.831,4.214,4.139-.135,1.572-.516,3.112-1.129,4.565l-1.204,3.361h21.899l1.932-5.017.351-.853Z"/></g></svg>