<?xml version="1.0" encoding="utf-8"?>
<!-- Generator: Adobe Illustrator 24.1.0, SVG Export Plug-In . SVG Version: 6.00 Build 0)  -->
<svg version="1.1" id="Layer_1" xmlns="http://www.w3.org/2000/svg" xmlns:xlink="http://www.w3.org/1999/xlink" x="0px" y="0px"
	 width="493px" height="203px" viewBox="0 0 72.4119873 29.8400269" style="enable-background:new 0 0 72.4119873 29.8400269;" xml:space="preserve">
<style type="text/css">
	.st0{clip-path:url(#SVGID_2_);fill:none;}
	.st1{clip-path:url(#SVGID_2_);fill:#ED1C24;}
	.st2{clip-path:url(#SVGID_2_);fill:#FFFFFF;}
</style>
<g>
	<defs>
		<rect id="SVGID_1_" width="72.4119873" height="29.8400269"/>
	</defs>
	<clipPath id="SVGID_2_">
		<use xlink:href="#SVGID_1_"  style="overflow:visible;"/>
	</clipPath>
	<path class="st0" d="M3.357605,0.0001221c-1.9460449,0-3.3580322,1.4620361-3.3580322,3.4770508v22.9589844
		c0,1.9089966,1.5570068,3.4039917,3.5449829,3.4039917h65.4500122c1.8200073,0,3.4169922-1.5800171,3.4169922-3.3809814V3.361145
		c0-1.8850098-1.5209961-3.3610229-3.4629517-3.3610229H3.357605z"/>
	<path class="st1" d="M65.4787598,21.3791504c-0.0689697,0-0.1359863,0.0059814-0.2019653,0.0180054l-1.4379883-4.085022
		c0.3469849-0.132019,0.5479736-0.2880249,0.5479736-0.4559937c0-0.21698-0.3389893-0.401001-0.8959961-0.5339966
		l-0.4329834-1.2330322c1.7849731-0.7909546,2.8129883-2.7319946,2.8129883-3.5739746
		c0.0440063-0.1710205,0.0559692-0.5130005,0.0559692-0.5130005c-0.0269775-0.1340332,0.1420288-0.1060181,0.1420288-0.1060181
		c0.2280273-0.1129761,0.0390015-0.7699585,0.0020142-0.7699585c-0.0339966,0-0.1849976,0.0309448-0.2070313-0.0620117
		c-0.447998-1.9190063-2.2719727-2.394043-3.6539917-2.5140381c0.0419922-0.0939941,0.0529785-0.3299561,0.0529785-0.447998
		c0-0.0570068-0.0009766-0.1090088-0.0089722-0.1519775h0.0369873c0.1619873,0,0.2919922-0.132019,0.2919922-0.2949829
		c0-0.1630249-0.1300049-0.2960205-0.2919922-0.2960205c0,0-0.3099976-0.0640259-1.1350098-0.0640259
		c-0.7459717,0-1.1019897,0.0640259-1.1019897,0.0640259c-0.1619873,0-0.2940063,0.1329956-0.2940063,0.2960205
		c0,0.1539917,0.1170044,0.2789917,0.2659912,0.2929688c-0.0059814,0.0440063-0.006958,0.0969849-0.006958,0.1539917
		c0,0.1090088,0.0029907,0.3200073,0.0379639,0.4260254c-1.4049683,0.0390015-3.4489746,0.3319702-3.8670044,2.5360107
		c0,0-0.1399536,0.0029907-0.1749878,0.0029907c-0.1049805,0-0.2369995,0.5650024-0.0889893,0.802002
		c0.0460205,0.0759888,0.1569824,0.0249634,0.2579956,0.0339966c0.0239868,0.223999,0.0380249,0.2520142,0.0679932,0.5629883
		c0.0889893,0.9360352,0.9990234,2.6860352,2.7219849,3.5l-0.492981,1.322998
		c-0.6380005,0.1350098-1.0339966,0.3320313-1.0339966,0.5670166c0,0.1820068,0.2379761,0.3510132,0.6400146,0.4899902
		l-2.4559937,6.585022l0.5369873,0.0019531l0.5029907-1.2519531l7.5029907,0.0089722
		c0.0100098,0.7059937,0.5900269,1.276001,1.3049927,1.276001c0.7220459,0,1.3070068-0.5800171,1.3070068-1.2929688
		C66.7857666,21.9591064,66.2008057,21.3791504,65.4787598,21.3791504 M62.9477539,16.2171021
		c-0.4969482-0.0759888-1.0909424-0.1229858-1.7369995-0.1339722l-0.0019531-0.6690063
		c0.4630127-0.0169678,0.9549561-0.0219727,1.3919678-0.1799927L62.9477539,16.2171021z M62.8828125,21.5291138l0.5739746,0.2960205
		l-2.6940308,0.0360107L62.8828125,21.5291138z M61.7138062,21.4311523
		c0.1219482-0.0970459,0.2259521-0.2130127,0.3059692-0.3470459l0.4310303,0.2230225L61.7138062,21.4311523z M61.7398071,6.9501343
		c-0.0050049,0.0429688-0.0060425,0.0949707-0.0060425,0.1519775c0,0.1160278,0.0050049,0.3480225,0.0440063,0.4450073
		L60.50177,7.5331421c0.0380249-0.1050415,0.0480347-0.3200073,0.0480347-0.4310303
		c0-0.0570068-0.0029907-0.1090088-0.0110474-0.1519775H61.7398071z M59.3908081,15.1391602
		c0.4349976,0.1619873,0.8449707,0.256958,1.3629761,0.256958v0.6849976
		c-0.6469727,0.0050049-1.2479858,0.0469971-1.7540283,0.1170044L59.3908081,15.1391602z M58.5307617,17.4701538
		c0.5859985,0.1349487,1.3630371,0.2209473,2.2230225,0.230957v1.4330444
		c-0.6530151,0.072998-1.1599731,0.6199951-1.1599731,1.2849731c0,0.1669922,0.032959,0.3259888,0.0909424,0.4719849
		l-2.8539429,1.2020264L58.5307617,17.4701538z M59.8477783,21.1841431
		c0.1550293,0.2089844,0.3720093,0.3689575,0.6229858,0.4550171l-2.9530029,0.4969482L59.8477783,21.1841431z
		 M64.2227783,22.3261108l-6.2360229-0.026001l1.6930542-0.2340088l4.2509766,0.0100098l-0.0250244-0.0199585l0.3460083,0.1779785
		C64.2407837,22.2641602,64.2307739,22.295105,64.2227783,22.3261108 M64.421814,21.9151001l-2.2680054-1.1269531
		c0.0339966-0.118042,0.0529785-0.2410278,0.0529785-0.3690186c0-0.6060181-0.4199829-1.1129761-0.9879761-1.2540283
		l-0.0030518-1.4659424c0.8450317-0.0180054,1.6050415-0.1090088,2.1680298-0.2480469l1.4470215,4.1000366
		C64.6697998,21.6421509,64.5307617,21.7671509,64.421814,21.9151001"/>
	<path class="st2" d="M49.7767334,23.3101196c0-0.3070068,0.2299805-0.5369873,0.526001-0.5369873
		c0.2919922,0,0.5230103,0.2299805,0.5230103,0.5369873c0,0.3109741-0.2310181,0.539978-0.5230103,0.539978
		C50.0067139,23.8500977,49.7767334,23.6210938,49.7767334,23.3101196 M50.3027344,23.9581299
		c0.3519897,0,0.6530151-0.2740479,0.6530151-0.6480103c0-0.3720093-0.3010254-0.6450195-0.6530151-0.6450195
		c-0.3560181,0-0.6560059,0.2730103-0.6560059,0.6450195C49.6467285,23.684082,49.9467163,23.9581299,50.3027344,23.9581299
		 M50.1657715,23.361084h0.1299438l0.1970215,0.322998h0.1270142l-0.2130127-0.3280029
		c0.1099854-0.0139771,0.1940308-0.0719604,0.1940308-0.2059937c0-0.1469727-0.0880127-0.2119751-0.2640381-0.2119751h-0.2839966
		v0.7459717h0.1130371V23.361084z M50.1657715,23.2650757v-0.230957h0.1549683c0.0770264,0,0.1619873,0.0169678,0.1619873,0.1099854
		c0,0.1140137-0.0859985,0.1209717-0.1820068,0.1209717H50.1657715z"/>
	<path class="st2" d="M67.6925659,23.3101196c0-0.3070068,0.2310181-0.5369873,0.526001-0.5369873
		c0.2919922,0,0.5230103,0.2299805,0.5230103,0.5369873c0,0.3109741-0.2310181,0.539978-0.5230103,0.539978
		C67.923584,23.8500977,67.6925659,23.6210938,67.6925659,23.3101196 M68.2185669,23.9581299
		c0.3530273,0,0.6530151-0.2740479,0.6530151-0.6480103c0-0.3720093-0.2999878-0.6450195-0.6530151-0.6450195
		c-0.3560181,0-0.6560059,0.2730103-0.6560059,0.6450195C67.562561,23.684082,67.8625488,23.9581299,68.2185669,23.9581299
		 M68.081604,23.361084h0.1299438l0.1970215,0.322998h0.1270142l-0.2130127-0.3280029
		c0.1099854-0.0139771,0.1940308-0.0719604,0.1940308-0.2059937c0-0.1469727-0.0880127-0.2119751-0.2640381-0.2119751h-0.28302
		v0.7459717h0.1120605V23.361084z M68.081604,23.2650757v-0.230957h0.1549683c0.0770264,0,0.1610107,0.0169678,0.1610107,0.1099854
		c0,0.1140137-0.085022,0.1209717-0.1810303,0.1209717H68.081604z"/>
	<path class="st2" d="M7.5079346,8.7632446c0-1.0599976-1.0150146-0.598999-1.0150146-1.2449951v-0.598999l3.572998-0.0100098
		V22.354248c0,0.4719849,0.3840332,0.7249756,0.7630005,0.7279663c0.3580322,0.0030518,0.7399902-0.2219849,0.7520142-0.7279663
		V6.9042358h2.1010132v15.4509888c0,0.2670288,0.1270142,0.4819946,0.3399658,0.6110229
		c0.2510376,0.1459961,0.5859985,0.1459961,0.8370361,0.0039673c0.2180176-0.1329956,0.3330078-0.3479614,0.3330078-0.6159668
		V6.9042358h2.5849609v14.4550171c0.0010376,1.8709717-1.8209839,2.9039917-5.1369629,2.9039917
		c-3.3630371,0-5.1450195-1.0100098-5.1459961-2.9039917L7.5079346,8.7632446z M44.1079102,16.6322632v5.4649658
		c0.0010376,0.8800049-0.9849854,2.1719971-3.0999756,2.1719971h-0.4309692c-2.1160278,0-3.1060181-1.2919922-3.1110229-2.1719971
		V8.7492676c0-0.7560425,0.9000244-2.1680298,3.0899658-2.1680298h0.44104c2.1959839,0,3.1109619,1.4119873,3.1109619,2.1680298
		v6.3009644h-4.0739746l0.0029907,7.5310059c0,0.4400024,0.3809814,0.6359863,0.7310181,0.6359863
		c0.3720093,0,0.7700195-0.2210083,0.7680054-0.6359863c0,0-0.0020142-5.7349854-0.0040283-5.9489746H44.1079102z
		 M40.0309448,12.9972534h1.5009766L41.5269165,8.196228c0-0.1889648-0.0910034-0.3319702-0.2509766-0.43396
		c-0.2709961-0.1550293-0.7030029-0.1520386-0.9830322,0.0130005C40.1229248,7.87323,40.0299683,8.0222168,40.0299683,8.196228
		L40.0309448,12.9972534z M26.5379639,16.6322632c0,0.21698,0.0029907,5.4649658,0.0029907,5.4649658
		c0.0009766,0.8800049-0.9890137,2.1719971-3.1030273,2.1719971h-0.4320068c-2.1149902,0-3.105957-1.2919922-3.1119995-2.1719971
		V8.7492676c0-0.7560425,0.901001-2.1680298,3.0900269-2.1680298h0.440979c2.1959839,0,3.1069946,1.4119873,3.1069946,2.1680298
		c0,0,0.0050049,6.09198,0.0050049,6.3009644h-4.0750122l0.0050049,7.5310059c0,0.4400024,0.3810425,0.6359863,0.7310181,0.6359863
		c0.3699951,0,0.7680054-0.2210083,0.7680054-0.6359863c0,0-0.0029907-5.7349854-0.0050049-5.9489746H26.5379639z
		 M22.4609375,12.9972534h1.4990234L23.9569092,8.196228c0-0.1889648-0.09198-0.3319702-0.2509766-0.43396
		c-0.2730103-0.1550293-0.7050171-0.1520386-0.9840088,0.0130005C22.5509644,7.87323,22.4579468,8.0222168,22.4579468,8.196228
		L22.4609375,12.9972534z M45.2019653,6.9482422v0.598999c0,0.6459961,1.0139771,0.1849976,1.0139771,1.2440186
		l0.0150146,15.1989746h2.5789795V8.104248c0.0339966-0.1430054,0.1229858-0.2639771,0.2650146-0.3439941
		c0.2600098-0.1560059,0.6640015-0.1560059,0.9290161,0c0.1849976,0.1109619,0.2859497,0.2789917,0.2869873,0.4760132v6.802002
		h2.6140137V8.2772217c0-0.7069702-0.4050293-1.072998-0.7530518-1.2509766
		c-0.8599854-0.4470215-2.2160034-0.6279907-3.157959,0.059021l-0.184021,0.1259766V6.9432373L45.2019653,6.9482422z
		 M71.1739502,3.3612671v23.0979614c0,1.1220093-1.0400391,2.144043-2.1790161,2.144043H3.5439453
		c-1.2930298,0-2.3070068-0.9510498-2.3070068-2.1670532V3.4772339c0-1.3389893,0.8519897-2.2399902,2.1209717-2.2399902H68.947937
		C70.1959229,1.2372437,71.1739502,2.1702271,71.1739502,3.3612671 M70.18396,3.3612671
		c0-0.6530151-0.5360107-1.1340332-1.2360229-1.1340332h-37.677002c0.0009766,1.4039917,0.0029907,4.9100342,0.0029907,4.9100342
		l0.1829834-0.1849976c0.3440552-0.348999,1.6520386-0.5230103,2.677002-0.092041
		c0.8040161,0.3389893,1.2290039,1.1090088,1.2310181,2.2160034l0.0079956,13.0209961
		c0,0.9110107-1.1729736,2.1719971-3.3640137,2.1719971c-2.2699585,0-3.3249512-1.2919922-3.3269653-2.1719971L28.6739502,3.0772705
		c0-0.6680298-0.4020386-0.7320557-0.7000122-0.8500366H3.3579102c-0.815979,0-1.1309814,0.5510254-1.1309814,1.25v22.9589844
		c0,0.6530151,0.5720215,1.177002,1.3170166,1.177002h65.4509888c0.6300049,0,1.1890259-0.5939941,1.1890259-1.1539917V3.3612671z
		 M31.2799683,22.5822144c0.0009766,0.4130249,0.3659668,0.6230469,0.7279663,0.6230469
		c0.3629761,0,0.7319946-0.210022,0.7290039-0.6230469l-0.007019-14.4509888c0-0.2909546-0.2810059-0.4799805-0.7030029-0.4799805
		c-0.3719482,0-0.7550049,0.1619873-0.7550049,0.4799805L31.2799683,22.5822144z"/>
</g>
<g>
</g>
<g>
</g>
<g>
</g>
<g>
</g>
<g>
</g>
<g>
</g>
</svg>
